<svg width="116" height="39" viewBox="0 0 116 39" fill="none" xmlns="http://www.w3.org/2000/svg">
<g clip-path="url(#clip0_1653_4968)">
<path d="M106.827 0.00012515H9.97954C9.62651 0.00012515 9.27773 0.000125151 8.92564 0.00205054C8.63091 0.00397593 8.33853 0.0095692 8.04097 0.0142768C7.39454 0.0218838 6.74962 0.0787546 6.11183 0.184395C5.47493 0.292335 4.85799 0.495833 4.28186 0.788005C3.70643 1.08265 3.18065 1.46551 2.72359 1.9227C2.26413 2.3786 1.88113 2.90556 1.58932 3.48331C1.29671 4.05992 1.09381 4.67781 0.987637 5.31563C0.880451 5.95265 0.822774 6.59702 0.815122 7.24295C0.806188 7.53811 0.805245 7.83426 0.800537 8.12946V30.3815C0.805245 30.6804 0.806188 30.97 0.815122 31.269C0.822776 31.9149 0.880454 32.5592 0.987637 33.1962C1.09352 33.8344 1.29643 34.4526 1.58932 35.0295C1.881 35.6053 2.26405 36.1302 2.72359 36.5835C3.17892 37.0428 3.70504 37.4259 4.28186 37.7183C4.85798 38.0112 5.47486 38.2159 6.11183 38.3255C6.74973 38.4303 7.39458 38.4872 8.04097 38.4957C8.33853 38.5023 8.63091 38.506 8.92564 38.506C9.27772 38.508 9.62653 38.508 9.97954 38.508H106.827C107.173 38.508 107.524 38.508 107.87 38.506C108.164 38.506 108.465 38.5023 108.758 38.4957C109.403 38.4877 110.047 38.4308 110.683 38.3255C111.322 38.2152 111.941 38.0105 112.52 37.7183C113.097 37.4257 113.622 37.0426 114.077 36.5835C114.536 36.1284 114.919 35.604 115.215 35.0295C115.505 34.4522 115.706 33.834 115.811 33.1962C115.918 32.5591 115.978 31.9149 115.989 31.269C115.993 30.97 115.993 30.6804 115.993 30.3815C116.001 30.0317 116.001 29.6839 116.001 29.3285V9.18052C116.001 8.82797 116.001 8.47824 115.993 8.12946C115.993 7.83426 115.993 7.53811 115.989 7.24291C115.978 6.59693 115.918 5.9527 115.811 5.31559C115.706 4.67814 115.505 4.0603 115.215 3.48327C114.62 2.32522 113.678 1.38258 112.52 0.787919C111.941 0.49646 111.322 0.293016 110.683 0.184308C110.047 0.0782025 109.403 0.0213119 108.758 0.014142C108.465 0.00944405 108.164 0.00380265 107.87 0.00192539C107.524 0 107.173 0 106.827 0V0.00012515Z" fill="#A6A6A6"/>
<path d="M8.93047 37.6654C8.63716 37.6654 8.35093 37.6617 8.05992 37.6551C7.45706 37.6473 6.85561 37.5948 6.2605 37.4981C5.7056 37.4025 5.16804 37.2248 4.66557 36.9706C4.1677 36.7186 3.71361 36.3882 3.32068 35.992C2.92207 35.6004 2.5902 35.1463 2.33824 34.6475C2.0835 34.1456 1.90721 33.6075 1.8155 33.0522C1.71646 32.4554 1.66287 31.852 1.65521 31.2471C1.6491 31.0441 1.64111 30.3681 1.64111 30.3681V8.12926C1.64111 8.12926 1.64962 7.46364 1.65526 7.26809C1.6626 6.66417 1.71587 6.06169 1.81461 5.46585C1.90649 4.90895 2.08292 4.36936 2.3378 3.86576C2.58883 3.36738 2.91886 2.91291 3.31507 2.51996C3.71084 2.12327 4.16638 1.79112 4.6651 1.53563C5.16641 1.28233 5.70295 1.10581 6.25674 1.01198C6.8538 0.91433 7.45734 0.861535 8.06229 0.85404L8.93095 0.842285H107.866L108.745 0.854511C109.344 0.861635 109.942 0.913958 110.534 1.01104C111.093 1.10604 111.635 1.28379 112.143 1.53845C113.142 2.05334 113.955 2.86795 114.467 3.86811C114.718 4.36823 114.892 4.90342 114.983 5.45551C115.083 6.05624 115.138 6.66346 115.15 7.27232C115.153 7.54496 115.153 7.83781 115.153 8.12926C115.16 8.49027 115.16 8.83388 115.16 9.18032V29.3283C115.16 29.678 115.16 30.0193 115.153 30.3634C115.153 30.6764 115.153 30.9632 115.149 31.2584C115.138 31.8564 115.083 32.4528 114.984 33.0427C114.895 33.6021 114.719 34.1444 114.465 34.6504C114.211 35.1437 113.881 35.5939 113.487 35.9844C113.094 36.3828 112.639 36.7152 112.14 36.9688C111.634 37.2249 111.093 37.4033 110.534 37.4981C109.939 37.5953 109.337 37.6478 108.734 37.6551C108.452 37.6617 108.157 37.6654 107.871 37.6654L106.827 37.6673L8.93047 37.6654Z" fill="black"/>
<path d="M24.6445 19.5433C24.6548 18.7398 24.8683 17.9519 25.2649 17.253C25.6616 16.5542 26.2286 15.967 26.9131 15.5461C26.4783 14.925 25.9045 14.4139 25.2376 14.0533C24.5706 13.6927 23.8287 13.4926 23.0709 13.4689C21.4543 13.2992 19.887 14.4363 19.0633 14.4363C18.2235 14.4363 16.9552 13.4858 15.5894 13.5139C14.7059 13.5424 13.8449 13.7993 13.0903 14.2595C12.3357 14.7198 11.7131 15.3676 11.2833 16.14C9.42145 19.3635 10.8102 24.101 12.5937 26.7066C13.486 27.9825 14.5289 29.4077 15.8935 29.3572C17.2288 29.3018 17.7275 28.5057 19.3394 28.5057C20.9362 28.5057 21.4041 29.3572 22.7964 29.3251C24.2293 29.3018 25.132 28.0435 25.993 26.7555C26.6342 25.8464 27.1275 24.8416 27.4548 23.7783C26.6224 23.4263 25.912 22.8369 25.4122 22.0838C24.9125 21.3307 24.6455 20.4471 24.6445 19.5433Z" fill="white"/>
<path d="M22.0139 11.7554C22.7951 10.8176 23.18 9.61209 23.0868 8.39502C21.8932 8.52038 20.7907 9.09084 19.9989 9.99272C19.6118 10.4333 19.3152 10.9459 19.1263 11.5011C18.9374 12.0564 18.8598 12.6434 18.8978 13.2287C19.4949 13.2349 20.0855 13.1055 20.6252 12.8503C21.165 12.5951 21.6398 12.2207 22.0139 11.7554Z" fill="white"/>
<path d="M41.5226 26.1273H36.9658L35.8715 29.3586H33.9414L38.2576 17.4038H40.2629L44.579 29.3586H42.616L41.5226 26.1273ZM37.4378 24.6363H41.0498L39.2692 19.3922H39.2193L37.4378 24.6363Z" fill="white"/>
<path d="M53.8994 25.0011C53.8994 27.7096 52.4497 29.4498 50.262 29.4498C49.7079 29.4788 49.1567 29.3511 48.6717 29.0814C48.1867 28.8117 47.7875 28.4109 47.5197 27.9249H47.4783V32.242H45.6892V20.6426H47.421V22.0923H47.4539C47.734 21.6086 48.14 21.2098 48.6287 20.9385C49.1174 20.6672 49.6705 20.5334 50.2291 20.5514C52.4412 20.5514 53.8994 22.3001 53.8994 25.0011ZM52.0605 25.0011C52.0605 23.2364 51.1486 22.0763 49.7572 22.0763C48.3902 22.0763 47.4708 23.2609 47.4708 25.0011C47.4708 26.7572 48.3902 27.9333 49.7572 27.9333C51.1486 27.9333 52.0605 26.7817 52.0605 25.0011Z" fill="white"/>
<path d="M63.4927 25.0011C63.4927 27.7096 62.043 29.4498 59.8553 29.4498C59.3011 29.4788 58.75 29.3511 58.265 29.0814C57.78 28.8117 57.3807 28.4109 57.1129 27.9249H57.0715V32.2419H55.2825V20.6426H57.0142V22.0923H57.0471C57.3272 21.6086 57.7332 21.2098 58.2219 20.9385C58.7106 20.6672 59.2637 20.5334 59.8224 20.5514C62.0345 20.5514 63.4927 22.3001 63.4927 25.0011ZM61.6538 25.0011C61.6538 23.2364 60.7418 22.0763 59.3504 22.0763C57.9835 22.0763 57.064 23.2609 57.064 25.0011C57.064 26.7572 57.9835 27.9333 59.3504 27.9333C60.7419 27.9333 61.6538 26.7817 61.6538 25.0011H61.6538Z" fill="white"/>
<path d="M69.8338 26.0278C69.9664 27.2133 71.1181 27.9917 72.6919 27.9917C74.1998 27.9917 75.2847 27.2133 75.2847 26.1443C75.2847 25.2164 74.6304 24.6608 73.0811 24.28L71.5317 23.9068C69.3365 23.3766 68.3174 22.3499 68.3174 20.684C68.3174 18.6214 70.115 17.2046 72.6674 17.2046C75.1935 17.2046 76.9253 18.6214 76.9836 20.684H75.1775C75.0694 19.491 74.0832 18.7709 72.642 18.7709C71.2008 18.7709 70.2146 19.4995 70.2146 20.5599C70.2146 21.4051 70.8445 21.9024 72.3853 22.2832L73.7025 22.6066C76.1553 23.1866 77.1744 24.1719 77.1744 25.9205C77.1744 28.1571 75.3928 29.5579 72.5593 29.5579C69.9081 29.5579 68.1181 28.19 68.0024 26.0277L69.8338 26.0278Z" fill="white"/>
<path d="M81.0346 18.5801V20.6427H82.692V22.0595H81.0346V26.8645C81.0346 27.611 81.3664 27.9588 82.095 27.9588C82.2918 27.9554 82.4882 27.9416 82.6835 27.9174V29.3258C82.356 29.387 82.023 29.4147 81.6898 29.4085C79.9252 29.4085 79.237 28.7457 79.237 27.0553V22.0595H77.9697V20.6427H79.237V18.5801H81.0346Z" fill="white"/>
<path d="M83.6538 25.0013C83.6538 22.2589 85.2689 20.5356 87.7876 20.5356C90.3147 20.5356 91.9223 22.2589 91.9223 25.0013C91.9223 27.7512 90.3231 29.4669 87.7876 29.4669C85.2529 29.4669 83.6538 27.7512 83.6538 25.0013ZM90.0994 25.0013C90.0994 23.1201 89.2373 22.0098 87.7876 22.0098C86.3379 22.0098 85.4767 23.1285 85.4767 25.0013C85.4767 26.89 86.3379 27.9918 87.7876 27.9918C89.2373 27.9918 90.0993 26.89 90.0993 25.0013H90.0994Z" fill="white"/>
<path d="M93.3953 20.6425H95.1016V22.126H95.143C95.2585 21.6627 95.5299 21.2532 95.9117 20.9665C96.2935 20.6797 96.7624 20.5331 97.2395 20.5513C97.4457 20.5506 97.6513 20.573 97.8525 20.6181V22.2915C97.5922 22.212 97.3207 22.1755 97.0486 22.1834C96.7887 22.1729 96.5296 22.2187 96.2891 22.3177C96.0486 22.4168 95.8323 22.5667 95.6552 22.7572C95.4781 22.9477 95.3443 23.1743 95.263 23.4214C95.1818 23.6685 95.1549 23.9302 95.1843 24.1887V29.3585H93.3953L93.3953 20.6425Z" fill="white"/>
<path d="M106.101 26.7988C105.861 28.381 104.32 29.4669 102.348 29.4669C99.8128 29.4669 98.239 27.7681 98.239 25.0426C98.239 22.3087 99.8213 20.5356 102.273 20.5356C104.685 20.5356 106.201 22.1922 106.201 24.8349V25.4478H100.045V25.556C100.017 25.8767 100.057 26.1999 100.163 26.5039C100.269 26.808 100.438 27.086 100.66 27.3195C100.882 27.553 101.151 27.7366 101.449 27.8582C101.747 27.9798 102.068 28.0366 102.39 28.0247C102.812 28.0643 103.237 27.9664 103.599 27.7456C103.962 27.5247 104.244 27.1926 104.403 26.7988L106.101 26.7988ZM100.053 24.1975H104.411C104.427 23.909 104.383 23.6204 104.283 23.3497C104.182 23.079 104.026 22.832 103.825 22.6243C103.625 22.4166 103.383 22.2526 103.116 22.1426C102.849 22.0327 102.562 21.9791 102.273 21.9853C101.982 21.9836 101.693 22.0396 101.423 22.15C101.154 22.2605 100.909 22.4233 100.702 22.6289C100.496 22.8346 100.332 23.0791 100.221 23.3483C100.11 23.6175 100.053 23.9061 100.053 24.1975V24.1975Z" fill="white"/>
<path d="M37.2165 8.40544C37.5916 8.37853 37.9679 8.43519 38.3185 8.57135C38.669 8.70751 38.9849 8.91976 39.2435 9.19281C39.5021 9.46585 39.6968 9.79288 39.8137 10.1503C39.9306 10.5077 39.9666 10.8866 39.9194 11.2597C39.9194 13.0948 38.9275 14.1497 37.2165 14.1497H35.1416V8.40544H37.2165ZM36.0338 13.3373H37.1168C37.3848 13.3534 37.6531 13.3094 37.9019 13.2087C38.1508 13.108 38.3741 12.953 38.5556 12.7551C38.7371 12.5573 38.8721 12.3214 38.9509 12.0647C39.0297 11.808 39.0503 11.537 39.0112 11.2714C39.0475 11.0068 39.0248 10.7375 38.9448 10.4827C38.8648 10.2279 38.7294 9.99395 38.5483 9.79763C38.3673 9.60131 38.1451 9.44746 37.8976 9.34711C37.6501 9.24677 37.3835 9.2024 37.1168 9.2172H36.0338V13.3373Z" fill="white"/>
<path d="M40.9276 11.9802C40.9004 11.6953 40.933 11.4079 41.0233 11.1363C41.1137 10.8648 41.2597 10.6151 41.4522 10.4033C41.6447 10.1916 41.8793 10.0223 42.141 9.90656C42.4028 9.79077 42.6858 9.73096 42.972 9.73096C43.2581 9.73096 43.5412 9.79077 43.8029 9.90656C44.0646 10.0223 44.2992 10.1916 44.4917 10.4033C44.6842 10.6151 44.8303 10.8648 44.9206 11.1363C45.0109 11.4079 45.0435 11.6953 45.0163 11.9802C45.044 12.2654 45.0118 12.5532 44.9217 12.8252C44.8316 13.0972 44.6856 13.3473 44.4931 13.5595C44.3006 13.7717 44.0658 13.9412 43.8038 14.0573C43.5418 14.1733 43.2585 14.2332 42.972 14.2332C42.6854 14.2332 42.4021 14.1733 42.1401 14.0573C41.8781 13.9412 41.6433 13.7717 41.4508 13.5595C41.2583 13.3473 41.1123 13.0972 41.0222 12.8252C40.9321 12.5532 40.8999 12.2654 40.9276 11.9802ZM44.1363 11.9802C44.1363 11.0405 43.7142 10.491 42.9734 10.491C42.2297 10.491 41.8114 11.0405 41.8114 11.9802C41.8114 12.9274 42.2298 13.4726 42.9734 13.4726C43.7142 13.4726 44.1363 12.9236 44.1363 11.9802H44.1363Z" fill="white"/>
<path d="M50.4508 14.1494H49.5633L48.6674 10.9567H48.5997L47.7075 14.1494H46.8285L45.6335 9.81445H46.5013L47.2778 13.1223H47.3418L48.233 9.81445H49.0538L49.945 13.1223H50.0127L50.7855 9.81445H51.641L50.4508 14.1494Z" fill="white"/>
<path d="M52.645 9.81451H53.4686V10.5032H53.5325C53.641 10.2558 53.8239 10.0485 54.0558 9.91004C54.2876 9.7716 54.557 9.70895 54.8261 9.73083C55.0371 9.71497 55.2488 9.74677 55.4458 9.82388C55.6428 9.90099 55.8199 10.0214 55.964 10.1763C56.1081 10.3311 56.2155 10.5164 56.2783 10.7184C56.341 10.9204 56.3575 11.1339 56.3266 11.3432V14.1494H55.4711V11.558C55.4711 10.8614 55.1683 10.5149 54.5356 10.5149C54.3924 10.5082 54.2495 10.5326 54.1166 10.5864C53.9836 10.6401 53.8639 10.722 53.7656 10.8263C53.6673 10.9306 53.5927 11.055 53.547 11.1909C53.5012 11.3267 53.4854 11.4709 53.5005 11.6134V14.1495H52.645L52.645 9.81451Z" fill="white"/>
<path d="M57.6899 8.12256H58.5455V14.1497H57.6899V8.12256Z" fill="white"/>
<path d="M59.7357 11.9803C59.7085 11.6954 59.7411 11.4079 59.8315 11.1364C59.9218 10.8648 60.0679 10.6151 60.2604 10.4033C60.4529 10.1916 60.6876 10.0224 60.9493 9.90656C61.211 9.79077 61.4941 9.73096 61.7803 9.73096C62.0665 9.73096 62.3495 9.79077 62.6112 9.90656C62.873 10.0224 63.1076 10.1916 63.3001 10.4033C63.4926 10.6151 63.6387 10.8648 63.7291 11.1364C63.8195 11.4079 63.8521 11.6954 63.8248 11.9803C63.8526 12.2654 63.8203 12.5533 63.7302 12.8253C63.6401 13.0972 63.494 13.3474 63.3015 13.5596C63.1089 13.7717 62.8741 13.9413 62.6121 14.0573C62.3502 14.1734 62.0668 14.2333 61.7803 14.2333C61.4937 14.2333 61.2104 14.1734 60.9484 14.0573C60.6864 13.9413 60.4516 13.7717 60.2591 13.5596C60.0665 13.3474 59.9205 13.0972 59.8303 12.8253C59.7402 12.5533 59.708 12.2654 59.7357 11.9803ZM62.9444 11.9803C62.9444 11.0406 62.5223 10.4911 61.7814 10.4911C61.0378 10.4911 60.6195 11.0406 60.6195 11.9803C60.6195 12.9275 61.0378 13.4727 61.7814 13.4727C62.5223 13.4727 62.9444 12.9237 62.9444 11.9803H62.9444Z" fill="white"/>
<path d="M64.7258 12.9236C64.7258 12.1433 65.3068 11.6935 66.3382 11.6295L67.5124 11.5619V11.1877C67.5124 10.7298 67.2097 10.4713 66.6249 10.4713C66.1473 10.4713 65.8164 10.6466 65.7214 10.9531H64.8932C64.9806 10.2085 65.681 9.73096 66.6644 9.73096C67.7512 9.73096 68.3641 10.272 68.3641 11.1877V14.1496H67.5406V13.5404H67.4729C67.3355 13.7589 67.1426 13.937 66.9138 14.0566C66.6851 14.1762 66.4287 14.2329 66.1708 14.221C65.9888 14.2399 65.8049 14.2205 65.6309 14.164C65.4569 14.1075 65.2966 14.0151 65.1605 13.8929C65.0243 13.7707 64.9153 13.6213 64.8405 13.4543C64.7656 13.2874 64.7265 13.1066 64.7258 12.9236ZM67.5124 12.5532V12.1908L66.4538 12.2585C65.8568 12.2984 65.586 12.5015 65.586 12.8837C65.586 13.2738 65.9245 13.5009 66.3899 13.5009C66.5263 13.5147 66.664 13.5009 66.7949 13.4604C66.9259 13.4199 67.0473 13.3534 67.152 13.265C67.2568 13.1766 67.3426 13.068 67.4045 12.9457C67.4664 12.8235 67.5031 12.69 67.5124 12.5532Z" fill="white"/>
<path d="M69.4885 11.9804C69.4885 10.6106 70.1927 9.74289 71.2879 9.74289C71.5589 9.73041 71.8277 9.7953 72.0631 9.92997C72.2985 10.0646 72.4907 10.2635 72.6173 10.5034H72.6812V8.12256H73.5367V14.1497H72.7169V13.4649H72.6493C72.5129 13.7031 72.314 13.8995 72.0741 14.0329C71.8341 14.1662 71.5623 14.2313 71.2879 14.2212C70.1852 14.2212 69.4885 13.3535 69.4885 11.9804ZM70.3723 11.9804C70.3723 12.8999 70.8057 13.4531 71.5305 13.4531C72.2516 13.4531 72.6972 12.8919 72.6972 11.9842C72.6972 11.0807 72.2469 10.5115 71.5305 10.5115C70.8104 10.5115 70.3723 11.0685 70.3723 11.9804H70.3723Z" fill="white"/>
<path d="M77.0756 11.9802C77.0483 11.6953 77.0809 11.4079 77.1713 11.1363C77.2616 10.8648 77.4077 10.6151 77.6002 10.4033C77.7927 10.1916 78.0273 10.0223 78.289 9.90656C78.5507 9.79077 78.8337 9.73096 79.1199 9.73096C79.4061 9.73096 79.6891 9.79077 79.9508 9.90656C80.2125 10.0223 80.4471 10.1916 80.6396 10.4033C80.8321 10.6151 80.9782 10.8648 81.0685 11.1363C81.1589 11.4079 81.1915 11.6953 81.1642 11.9802C81.192 12.2654 81.1598 12.5532 81.0697 12.8252C80.9796 13.0972 80.8336 13.3473 80.641 13.5595C80.4485 13.7717 80.2137 13.9412 79.9517 14.0573C79.6898 14.1733 79.4064 14.2332 79.1199 14.2332C78.8334 14.2332 78.55 14.1733 78.2881 14.0573C78.0261 13.9412 77.7913 13.7717 77.5988 13.5595C77.4062 13.3473 77.2602 13.0972 77.1701 12.8252C77.08 12.5532 77.0478 12.2654 77.0756 11.9802ZM80.2843 11.9802C80.2843 11.0405 79.8621 10.491 79.1213 10.491C78.3777 10.491 77.9593 11.0405 77.9593 11.9802C77.9593 12.9274 78.3777 13.4726 79.1213 13.4726C79.8621 13.4726 80.2843 12.9236 80.2843 11.9802Z" fill="white"/>
<path d="M82.312 9.81451H83.1356V10.5032H83.1995C83.308 10.2558 83.4909 10.0485 83.7228 9.91004C83.9546 9.7716 84.2239 9.70895 84.4931 9.73083C84.7041 9.71497 84.9158 9.74677 85.1128 9.82388C85.3098 9.90099 85.4869 10.0214 85.631 10.1763C85.7751 10.3311 85.8825 10.5164 85.9453 10.7184C86.008 10.9204 86.0245 11.1339 85.9936 11.3432V14.1494H85.1381V11.558C85.1381 10.8614 84.8353 10.5149 84.2026 10.5149C84.0594 10.5082 83.9165 10.5326 83.7835 10.5864C83.6506 10.6401 83.5309 10.722 83.4326 10.8263C83.3343 10.9306 83.2597 11.055 83.214 11.1909C83.1682 11.3267 83.1524 11.4709 83.1675 11.6134V14.1495H82.312V9.81451Z" fill="white"/>
<path d="M90.8286 8.73535V9.83437H91.7678V10.555H90.8286V12.784C90.8286 13.2381 91.0157 13.437 91.4415 13.437C91.5506 13.4366 91.6595 13.43 91.7678 13.4172V14.1298C91.6141 14.1573 91.4585 14.1719 91.3024 14.1735C90.351 14.1735 89.9721 13.8389 89.9721 13.0031V10.5549H89.2839V9.83433H89.9721V8.73535H90.8286Z" fill="white"/>
<path d="M92.9355 8.12256H93.7835V10.5114H93.8512C93.965 10.2618 94.1529 10.0533 94.3894 9.91432C94.626 9.77536 94.8996 9.7127 95.173 9.73489C95.3828 9.72347 95.5926 9.75851 95.7873 9.83749C95.9821 9.91647 96.157 10.0375 96.2996 10.1918C96.4422 10.3462 96.5489 10.5301 96.6123 10.7305C96.6756 10.9308 96.6939 11.1427 96.6659 11.351V14.1498H95.8096V11.562C95.8096 10.8696 95.4871 10.519 94.8826 10.519C94.7356 10.5069 94.5877 10.5271 94.4492 10.5782C94.3108 10.6293 94.1852 10.71 94.0813 10.8146C93.9773 10.9193 93.8975 11.0455 93.8474 11.1842C93.7972 11.323 93.778 11.471 93.7911 11.618V14.1497H92.9356L92.9355 8.12256Z" fill="white"/>
<path d="M101.654 12.9792C101.538 13.3754 101.286 13.7181 100.943 13.9473C100.599 14.1766 100.186 14.2778 99.7756 14.2333C99.49 14.2409 99.2062 14.1862 98.9439 14.073C98.6815 13.9599 98.4469 13.791 98.2564 13.5781C98.0659 13.3652 97.924 13.1134 97.8405 12.8402C97.7571 12.5669 97.7341 12.2788 97.7731 11.9958C97.7351 11.7119 97.7585 11.4232 97.8418 11.1491C97.925 10.8751 98.0662 10.6221 98.2557 10.4074C98.4452 10.1926 98.6787 10.0211 98.9403 9.9044C99.2018 9.78771 99.4854 9.72859 99.7718 9.73103C100.978 9.73103 101.706 10.5551 101.706 11.9163V12.2149H98.6446V12.2628C98.6312 12.4219 98.6512 12.582 98.7033 12.7329C98.7554 12.8838 98.8385 13.0222 98.9472 13.1391C99.0559 13.256 99.1878 13.3489 99.3345 13.4119C99.4812 13.4749 99.6395 13.5065 99.7991 13.5047C100.004 13.5293 100.211 13.4924 100.395 13.3988C100.578 13.3052 100.73 13.1592 100.83 12.9792L101.654 12.9792ZM98.6446 11.5821H100.834C100.845 11.4367 100.825 11.2905 100.776 11.1531C100.727 11.0157 100.65 10.8901 100.549 10.7844C100.449 10.6786 100.327 10.595 100.193 10.539C100.058 10.483 99.913 10.4558 99.7671 10.4592C99.6192 10.4573 99.4723 10.4851 99.3353 10.5409C99.1982 10.5967 99.0737 10.6793 98.9691 10.784C98.8645 10.8886 98.7819 11.0132 98.7261 11.1503C98.6704 11.2873 98.6427 11.4342 98.6446 11.5821H98.6446Z" fill="white"/>
</g>
<defs>
<clipPath id="clip0_1653_4968">
<rect width="115.2" height="38.5078" fill="white" transform="translate(0.799805)"/>
</clipPath>
</defs>
</svg>
