<svg width="130" height="39" viewBox="0 0 130 39" fill="none" xmlns="http://www.w3.org/2000/svg">
<path d="M125.15 0H4.81323C2.15482 0 -0.000244141 2.15507 -0.000244141 4.81348V33.6944C-0.000244141 36.3528 2.15482 38.5078 4.81323 38.5078H125.15C127.809 38.5078 129.964 36.3528 129.964 33.6944V4.81348C129.964 2.15507 127.809 0 125.15 0Z" fill="black"/>
<path d="M125.15 0.770157C126.223 0.770157 127.251 1.19615 128.009 1.95442C128.768 2.71269 129.194 3.74112 129.194 4.81348V33.6944C129.194 34.7667 128.768 35.7952 128.009 36.5534C127.251 37.3117 126.223 37.7377 125.15 37.7377H4.81323C3.74088 37.7377 2.71244 37.3117 1.95417 36.5534C1.1959 35.7952 0.769913 34.7667 0.769913 33.6944V4.81348C0.769913 3.74112 1.1959 2.71269 1.95417 1.95442C2.71244 1.19615 3.74088 0.770157 4.81323 0.770157H125.15ZM125.15 0H4.81323C3.53662 0 2.31229 0.507133 1.40959 1.40984C0.506889 2.31254 -0.000244141 3.53687 -0.000244141 4.81348V33.6944C-0.000244141 34.971 0.506889 36.1953 1.40959 37.098C2.31229 38.0007 3.53662 38.5078 4.81323 38.5078H125.15C126.427 38.5078 127.651 38.0007 128.554 37.098C129.457 36.1953 129.964 34.971 129.964 33.6944V4.81348C129.964 3.53687 129.457 2.31254 128.554 1.40984C127.651 0.507133 126.427 0 125.15 0Z" fill="#A6A6A6"/>
<path d="M45.6514 9.85778C45.6672 10.2108 45.6114 10.5634 45.4873 10.8943C45.3632 11.2252 45.1734 11.5276 44.9294 11.7832C44.6559 12.0655 44.3258 12.2869 43.9609 12.4329C43.5959 12.5789 43.2042 12.6462 42.8114 12.6303C42.4164 12.6391 42.0238 12.5668 41.6578 12.4178C41.2919 12.2687 40.9604 12.0462 40.6839 11.7639C40.1229 11.1901 39.8088 10.4195 39.8088 9.61711C39.8088 8.81466 40.1229 8.04409 40.6839 7.47029C41.1128 7.05122 41.6559 6.76823 42.2451 6.6569C42.8344 6.54557 43.4433 6.61085 43.9956 6.84454C44.3427 6.98724 44.6523 7.20794 44.9005 7.48955L44.3903 7.99978C44.1991 7.76947 43.9568 7.58691 43.6828 7.46659C43.4087 7.34627 43.1104 7.2915 42.8114 7.30663C42.4341 7.30924 42.0631 7.40424 41.7309 7.58333C41.3988 7.76241 41.1155 8.02013 40.906 8.33395C40.6964 8.64778 40.5669 9.00816 40.5288 9.38359C40.4906 9.75902 40.545 10.1381 40.6872 10.4876C40.8294 10.8372 41.0551 11.1466 41.3444 11.3888C41.6338 11.631 41.9781 11.7986 42.3472 11.8771C42.7164 11.9555 43.0991 11.9423 43.4619 11.8387C43.8248 11.735 44.1567 11.5441 44.4288 11.2826C44.7228 10.9602 44.8933 10.5441 44.9101 10.1081H42.8114V9.41494H45.6129C45.6348 9.56162 45.6477 9.70951 45.6514 9.85778Z" fill="white" stroke="white" stroke-width="0.192539" stroke-miterlimit="10"/>
<path d="M50.0597 7.45116H47.4604V9.28029H49.8286V9.97343H47.4604V11.8026H50.0597V12.5149H46.7095V6.73877H50.0597V7.45116Z" fill="white" stroke="white" stroke-width="0.192539" stroke-miterlimit="10"/>
<path d="M53.2175 12.5149H52.4762V7.45116H50.8589V6.73877H54.8733V7.45116H53.2175V12.5149Z" fill="white" stroke="white" stroke-width="0.192539" stroke-miterlimit="10"/>
<path d="M57.7034 12.5149V6.73877H58.4446V12.5149H57.7034Z" fill="white" stroke="white" stroke-width="0.192539" stroke-miterlimit="10"/>
<path d="M61.7373 12.5149H60.996V7.45116H59.3787V6.73877H63.345V7.45116H61.7373V12.5149Z" fill="white" stroke="white" stroke-width="0.192539" stroke-miterlimit="10"/>
<path d="M70.8639 11.7642C70.5858 12.0425 70.2557 12.2632 69.8923 12.4138C69.5288 12.5644 69.1393 12.642 68.7459 12.642C68.3526 12.642 67.963 12.5644 67.5996 12.4138C67.2362 12.2632 66.9061 12.0425 66.628 11.7642C66.0838 11.1856 65.7808 10.4213 65.7808 9.627C65.7808 8.83271 66.0838 8.06835 66.628 7.48981C66.9001 7.2037 67.2292 6.97788 67.594 6.82697C67.9588 6.67607 68.3513 6.60343 68.7459 6.61376C69.1401 6.60752 69.5313 6.68203 69.8955 6.8327C70.2598 6.98336 70.5893 7.20699 70.8639 7.48981C71.1407 7.77139 71.3583 8.10558 71.5038 8.47266C71.6493 8.83973 71.7198 9.23223 71.711 9.627C71.7237 10.0223 71.655 10.4159 71.5093 10.7835C71.3635 11.1511 71.1439 11.4849 70.8639 11.7642ZM67.1767 11.2828C67.3818 11.4907 67.6261 11.6557 67.8955 11.7683C68.1649 11.8809 68.454 11.9389 68.7459 11.9389C69.0379 11.9389 69.327 11.8809 69.5964 11.7683C69.8657 11.6557 70.1101 11.4907 70.3151 11.2828C70.7305 10.8315 70.9611 10.2404 70.9611 9.627C70.9611 9.01357 70.7305 8.42254 70.3151 7.97116C70.1101 7.76334 69.8657 7.59832 69.5964 7.48569C69.327 7.37306 69.0379 7.31506 68.7459 7.31506C68.454 7.31506 68.1649 7.37306 67.8955 7.48569C67.6261 7.59832 67.3818 7.76334 67.1767 7.97116C66.7614 8.42254 66.5308 9.01357 66.5308 9.627C66.5308 10.2404 66.7614 10.8315 67.1767 11.2828Z" fill="white" stroke="white" stroke-width="0.192539" stroke-miterlimit="10"/>
<path d="M72.7603 12.5149V6.73877H73.6556L76.4666 11.2346V10.1178V6.73877H77.2079V12.5149H76.4378L73.5015 7.80736V8.91446V12.5149H72.7603Z" fill="white" stroke="white" stroke-width="0.192539" stroke-miterlimit="10"/>
<path d="M65.5978 20.9387C64.7867 20.9406 63.9943 21.183 63.321 21.6352C62.6476 22.0874 62.1235 22.7291 61.8148 23.4792C61.5062 24.2293 61.4269 25.0541 61.587 25.8493C61.7471 26.6444 62.1394 27.3742 62.7143 27.9464C63.2892 28.5186 64.0209 28.9075 64.8168 29.0639C65.6127 29.2203 66.4371 29.1371 67.1857 28.825C67.9344 28.5128 68.5736 27.9857 69.0227 27.3102C69.4717 26.6347 69.7104 25.8412 69.7085 25.0301C69.7163 24.489 69.6152 23.9519 69.4112 23.4507C69.2071 22.9495 68.9043 22.4944 68.5208 22.1127C68.1372 21.7309 67.6808 21.4302 67.1786 21.2286C66.6764 21.0269 66.1388 20.9283 65.5978 20.9387ZM65.5978 27.5139C65.1006 27.5486 64.6045 27.4331 64.1739 27.1821C63.7433 26.9312 63.3982 26.5565 63.1834 26.1068C62.9685 25.6572 62.8939 25.1532 62.9693 24.6606C63.0447 24.168 63.2665 23.7094 63.6059 23.3445C63.9454 22.9796 64.3867 22.7252 64.8726 22.6145C65.3586 22.5038 65.8665 22.5418 66.3306 22.7236C66.7946 22.9054 67.1932 23.2226 67.4746 23.6339C67.7559 24.0453 67.907 24.5318 67.9082 25.0301C67.9238 25.3459 67.8759 25.6616 67.7674 25.9586C67.659 26.2555 67.4922 26.5278 67.2769 26.7593C67.0615 26.9908 66.802 27.1768 66.5136 27.3064C66.2253 27.436 65.9138 27.5066 65.5978 27.5139ZM56.6255 20.9387C55.8143 20.9406 55.022 21.183 54.3486 21.6352C53.6753 22.0874 53.1511 22.7291 52.8425 23.4792C52.5339 24.2293 52.4546 25.0541 52.6147 25.8493C52.7748 26.6444 53.1671 27.3742 53.742 27.9464C54.3169 28.5186 55.0486 28.9075 55.8445 29.0639C56.6404 29.2203 57.4648 29.1371 58.2134 28.825C58.962 28.5128 59.6013 27.9857 60.0504 27.3102C60.4994 26.6347 60.7381 25.8412 60.7362 25.0301C60.744 24.489 60.6429 23.9519 60.4389 23.4507C60.2348 22.9495 59.932 22.4944 59.5484 22.1127C59.1649 21.7309 58.7084 21.4302 58.2063 21.2286C57.7041 21.0269 57.1665 20.9283 56.6255 20.9387ZM56.6255 27.5139C56.1283 27.5486 55.6322 27.4331 55.2016 27.1821C54.771 26.9312 54.4259 26.5565 54.211 26.1068C53.9962 25.6572 53.9216 25.1532 53.997 24.6606C54.0723 24.168 54.2942 23.7094 54.6336 23.3445C54.973 22.9796 55.4144 22.7252 55.9003 22.6145C56.3862 22.5038 56.8942 22.5418 57.3582 22.7236C57.8223 22.9054 58.2209 23.2226 58.5022 23.6339C58.7836 24.0453 58.9347 24.5318 58.9359 25.0301C58.9514 25.3459 58.9035 25.6616 58.7951 25.9586C58.6867 26.2555 58.5199 26.5278 58.3045 26.7593C58.0892 26.9908 57.8297 27.1768 57.5413 27.3064C57.2529 27.436 56.9415 27.5066 56.6255 27.5139ZM45.9588 22.1998V23.9327H50.1176C50.0524 24.7488 49.7131 25.519 49.1549 26.118C48.7378 26.543 48.236 26.8757 47.6821 27.0946C47.1282 27.3135 46.5346 27.4137 45.9395 27.3887C44.714 27.3887 43.5386 26.9019 42.672 26.0353C41.8054 25.1687 41.3186 23.9933 41.3186 22.7678C41.3186 21.5422 41.8054 20.3669 42.672 19.5003C43.5386 18.6337 44.714 18.1468 45.9395 18.1468C47.1144 18.1294 48.2489 18.5756 49.0972 19.3887L50.3198 18.1661C49.746 17.5986 49.0647 17.1513 48.3159 16.8505C47.5671 16.5496 46.7657 16.4012 45.9588 16.414C45.1029 16.3807 44.2492 16.5205 43.4487 16.825C42.6482 17.1296 41.9174 17.5926 41.3001 18.1863C40.6828 18.7801 40.1917 19.4923 39.8562 20.2804C39.5208 21.0684 39.3479 21.9161 39.3479 22.7726C39.3479 23.6291 39.5208 24.4768 39.8562 25.2648C40.1917 26.0529 40.6828 26.7651 41.3001 27.3589C41.9174 27.9526 42.6482 28.4156 43.4487 28.7202C44.2492 29.0247 45.1029 29.1645 45.9588 29.1312C46.7823 29.1641 47.6034 29.0224 48.3683 28.7155C49.1332 28.4085 49.8245 27.9433 50.3968 27.3502C51.4078 26.2397 51.9464 24.779 51.8986 23.278C51.9021 22.9167 51.8731 22.5559 51.812 22.1998H45.9588ZM89.5785 23.5476C89.3275 22.8089 88.858 22.164 88.2322 21.6981C87.6064 21.2322 86.8539 20.9674 86.0743 20.9387C85.5477 20.9376 85.0265 21.0446 84.5429 21.253C84.0593 21.4614 83.6236 21.7668 83.2626 22.1503C82.9017 22.5337 82.6233 22.9871 82.4446 23.4825C82.2659 23.9778 82.1906 24.5046 82.2235 25.0301C82.2153 25.9089 82.4916 26.7668 83.0111 27.4756C83.5307 28.1844 84.2656 28.7062 85.1061 28.9629C85.9466 29.2196 86.8476 29.1975 87.6745 28.8999C88.5014 28.6023 89.2099 28.0452 89.694 27.3117L88.2981 26.349C88.09 26.6959 87.7949 26.9823 87.442 27.1798C87.089 27.3774 86.6906 27.4793 86.2861 27.4754C85.8689 27.4926 85.4561 27.3832 85.1022 27.1616C84.7483 26.9399 84.4696 26.6164 84.303 26.2335L89.7807 23.9712L89.5785 23.5476ZM83.9949 24.9146C83.9754 24.6156 84.0157 24.3156 84.1136 24.0324C84.2114 23.7492 84.3648 23.4883 84.5647 23.265C84.7646 23.0418 85.0071 22.8607 85.2779 22.7323C85.5487 22.604 85.8423 22.5309 86.1417 22.5175C86.4519 22.4986 86.7608 22.5716 87.0296 22.7274C87.2985 22.8833 87.5154 23.115 87.6531 23.3935L83.9949 24.9146ZM79.5472 28.8809H81.3475V16.8472H79.5472V28.8809ZM76.6014 21.8532H76.534C76.2651 21.547 75.9332 21.3024 75.561 21.1362C75.1888 20.9701 74.7851 20.8863 74.3776 20.8905C73.3255 20.9415 72.3334 21.3954 71.6069 22.158C70.8804 22.9206 70.4751 23.9335 70.4751 24.9868C70.4751 26.0401 70.8804 27.053 71.6069 27.8156C72.3334 28.5782 73.3255 29.0321 74.3776 29.0831C74.7857 29.0913 75.1906 29.0092 75.5634 28.8428C75.9362 28.6764 76.2676 28.4297 76.534 28.1204H76.6014V28.7076C76.6014 30.2768 75.7638 31.1144 74.4161 31.1144C73.9658 31.1045 73.5287 30.961 73.1602 30.7022C72.7917 30.4434 72.5084 30.0808 72.3463 29.6607L70.7867 30.3057C71.075 31.0299 71.5764 31.6495 72.2244 32.0827C72.8724 32.5159 73.6367 32.7422 74.4161 32.7317C76.5244 32.7317 78.2669 31.4898 78.2669 28.4669V21.1793H76.6014V21.8532ZM74.5316 27.5139C73.9008 27.4746 73.3088 27.1963 72.876 26.7357C72.4433 26.2751 72.2024 25.6669 72.2024 25.0349C72.2024 24.403 72.4433 23.7947 72.876 23.3342C73.3088 22.8736 73.9008 22.5953 74.5316 22.556C74.8399 22.5693 75.1424 22.6445 75.421 22.7771C75.6996 22.9097 75.9488 23.0969 76.1535 23.3278C76.3583 23.5586 76.5146 23.8283 76.613 24.1207C76.7115 24.4132 76.7501 24.7224 76.7265 25.0301C76.7528 25.3389 76.7162 25.6497 76.6189 25.9439C76.5216 26.238 76.3656 26.5094 76.1604 26.7416C75.9553 26.9738 75.7051 27.1619 75.4252 27.2947C75.1452 27.4274 74.8412 27.502 74.5316 27.5139ZM98.0117 16.8472H93.6989V28.8809H95.4991V24.3177H98.0117C98.5248 24.3546 99.04 24.2854 99.5251 24.1143C100.01 23.9433 100.455 23.6742 100.831 23.3237C101.208 22.9733 101.508 22.549 101.714 22.0774C101.919 21.6057 102.025 21.0969 102.025 20.5825C102.025 20.0681 101.919 19.5592 101.714 19.0876C101.508 18.6159 101.208 18.1917 100.831 17.8412C100.455 17.4907 100.01 17.2216 99.5251 17.0506C99.04 16.8796 98.5248 16.8103 98.0117 16.8472ZM98.0117 22.6234H95.4991V18.5223H98.0503C98.3208 18.5223 98.5887 18.5756 98.8386 18.6791C99.0886 18.7827 99.3157 18.9344 99.507 19.1257C99.6983 19.317 99.8501 19.5441 99.9536 19.7941C100.057 20.044 100.11 20.3119 100.11 20.5825C100.11 20.853 100.057 21.1209 99.9536 21.3709C99.8501 21.6208 99.6983 21.8479 99.507 22.0392C99.3157 22.2305 99.0886 22.3823 98.8386 22.4858C98.5887 22.5893 98.3208 22.6426 98.0503 22.6426L98.0117 22.6234ZM109.121 20.9002C108.466 20.8597 107.813 21.0124 107.243 21.3392C106.673 21.666 106.212 22.1526 105.915 22.7389L107.504 23.4032C107.664 23.1138 107.905 22.8771 108.197 22.7216C108.49 22.5661 108.82 22.4986 109.15 22.5271C109.379 22.5004 109.61 22.5195 109.831 22.5833C110.052 22.647 110.259 22.7542 110.438 22.8984C110.617 23.0427 110.766 23.2212 110.875 23.4236C110.985 23.626 111.053 23.8481 111.076 24.0771V24.1926C110.497 23.8883 109.852 23.7297 109.198 23.7305C107.485 23.7305 105.733 24.6932 105.733 26.4453C105.75 26.8177 105.841 27.1829 106.002 27.5192C106.163 27.8555 106.39 28.1561 106.669 28.403C106.948 28.65 107.274 28.8383 107.628 28.9568C107.981 29.0752 108.355 29.1215 108.727 29.0927C109.178 29.1177 109.629 29.0221 110.031 28.8157C110.434 28.6093 110.774 28.2996 111.018 27.9182H111.076V28.8809H112.808V24.2503C112.808 22.142 111.21 20.9194 109.16 20.9194L109.121 20.9002ZM108.9 27.4946C108.313 27.4946 107.494 27.1962 107.494 26.4742C107.494 25.5115 108.515 25.1842 109.42 25.1842C109.992 25.17 110.557 25.3097 111.056 25.5885C110.996 26.1113 110.748 26.5945 110.359 26.9485C109.969 27.3025 109.465 27.5034 108.938 27.5139L108.9 27.4946ZM119.124 21.1793L117.063 26.3972H117.006L114.869 21.1793H112.943L116.149 28.4766L114.32 32.5295H116.197L121.126 21.1793H119.124ZM102.95 28.8809H104.741V16.8472H102.95V28.8809Z" fill="white"/>
<path d="M10.0496 7.2588C9.73239 7.63388 9.57052 8.11604 9.59716 8.60657V29.9014C9.5644 30.3927 9.72702 30.8771 10.0496 31.2492L10.117 31.3262L22.0448 19.3984V19.1096L10.117 7.19141L10.0496 7.2588Z" fill="url(#paint0_linear_1653_4949)"/>
<path d="M25.9929 23.374L22.0459 19.398V19.1092L25.9929 15.1333L26.0796 15.1911L30.8064 17.8674C32.1542 18.6279 32.1542 19.8794 30.8064 20.6495L26.0988 23.3258L25.9929 23.374Z" fill="url(#paint1_linear_1653_4949)"/>
<path d="M26.1076 23.3165L22.045 19.2539L10.0498 31.2491C10.3218 31.4912 10.67 31.6305 11.034 31.6429C11.398 31.6552 11.7548 31.5397 12.0426 31.3165L26.1076 23.3165Z" fill="url(#paint2_linear_1653_4949)"/>
<path d="M26.1076 15.1913L12.0426 7.20089C11.7567 6.97457 11.4002 6.8563 11.0357 6.86686C10.6712 6.87743 10.3221 7.01615 10.0498 7.25865L22.045 19.2538L26.1076 15.1913Z" fill="url(#paint3_linear_1653_4949)"/>
<path opacity="0.2" d="M25.992 23.23L12.0426 31.1722C11.7653 31.3815 11.4273 31.4947 11.0799 31.4947C10.7325 31.4947 10.3945 31.3815 10.1172 31.1722L10.0498 31.2396L10.1172 31.3166C10.3945 31.5259 10.7325 31.6391 11.0799 31.6391C11.4273 31.6391 11.7653 31.5259 12.0426 31.3166L26.1076 23.3166L25.992 23.23Z" fill="black"/>
<path opacity="0.12" d="M10.0502 31.1147C9.74098 30.7329 9.58944 30.2473 9.62662 29.7573V29.9017C9.59386 30.3931 9.75648 30.8775 10.0791 31.2495L10.1465 31.1821L10.0502 31.1147Z" fill="black"/>
<path opacity="0.12" d="M30.8062 20.5054L25.9927 23.2298L26.0793 23.3165L30.8062 20.6402C31.0852 20.5222 31.3272 20.3312 31.5068 20.0872C31.6864 19.8433 31.7969 19.5554 31.8266 19.2539C31.7664 19.5279 31.6427 19.7838 31.4655 20.0012C31.2882 20.2186 31.0624 20.3913 30.8062 20.5054Z" fill="black"/>
<path opacity="0.25" d="M12.0439 7.33546L30.8068 18.0021C31.063 18.1162 31.2889 18.2889 31.4661 18.5063C31.6434 18.7237 31.7671 18.9797 31.8273 19.2536C31.7975 18.9522 31.687 18.6643 31.5075 18.4203C31.3279 18.1764 31.0858 17.9853 30.8068 17.8674L12.0439 7.20068C10.7057 6.43052 9.59863 7.0659 9.59863 8.60622V8.75062C9.62751 7.21031 10.7057 6.57493 12.0439 7.33546Z" fill="white"/>
<defs>
<linearGradient id="paint0_linear_1653_4949" x1="20.9858" y1="8.38515" x2="4.83181" y2="24.5392" gradientUnits="userSpaceOnUse">
<stop stop-color="#00A0FF"/>
<stop offset="0.01" stop-color="#00A1FF"/>
<stop offset="0.26" stop-color="#00BEFF"/>
<stop offset="0.51" stop-color="#00D2FF"/>
<stop offset="0.76" stop-color="#00DFFF"/>
<stop offset="1" stop-color="#00E3FF"/>
</linearGradient>
<linearGradient id="paint1_linear_1653_4949" x1="32.5682" y1="19.2536" x2="9.28055" y2="19.2536" gradientUnits="userSpaceOnUse">
<stop stop-color="#FFE000"/>
<stop offset="0.41" stop-color="#FFBD00"/>
<stop offset="0.78" stop-color="#FFA500"/>
<stop offset="1" stop-color="#FF9C00"/>
</linearGradient>
<linearGradient id="paint2_linear_1653_4949" x1="23.903" y1="21.4681" x2="1.99203" y2="43.3694" gradientUnits="userSpaceOnUse">
<stop stop-color="#FF3A44"/>
<stop offset="1" stop-color="#C31162"/>
</linearGradient>
<linearGradient id="paint3_linear_1653_4949" x1="7.02694" y1="0.173206" x2="16.8079" y2="9.95419" gradientUnits="userSpaceOnUse">
<stop stop-color="#32A071"/>
<stop offset="0.07" stop-color="#2DA771"/>
<stop offset="0.48" stop-color="#15CF74"/>
<stop offset="0.8" stop-color="#06E775"/>
<stop offset="1" stop-color="#00F076"/>
</linearGradient>
</defs>
</svg>
